#Comment line ignore any data following # character 
#Hierarchical Translation and Rotation (.htr) file 
[Header]	
#Header keywords are followed by a single value 
FileType HTR		#Single word string
DataType HTRS		#Translation followed by rotation and scale data
FileVersion 1		#integer
NumSegments 84		#integer
NumFrames 2		#integer
DataFrameRate 30		#integer, data frame rate in this file
EulerRotationOrder ZYX
CalibrationUnits mm
RotationUnits Degrees
GlobalAxisofGravity Y
BoneLengthAxis Y
ScaleFactor 1.00
[SegmentNames&Hierarchy]
#CHILD	PARENT
MASTER GLOBAL
root MASTER
chest root
L_mid_tent01 root
R_mid_tent01 root
spine01 root
Bip01_Neck chest
L_humerus chest
R_humerus chest
weapon_bone chest
Bip01_Head Bip01_Neck
eye_left_bone Bip01_Head
eye_right_bone Bip01_Head
L_forearm L_humerus
L_front_hand L_forearm
L_weapon_bone L_forearm
L_front_hand01_01 L_front_hand
L_front_hand02_01 L_front_hand
L_front_hand03_01 L_front_hand
L_front_hand01_02 L_front_hand01_01
L_front_hand02_02 L_front_hand02_01
L_front_hand03_02 L_front_hand03_01
R_forearm R_humerus
R_front_hand R_forearm
R_weapon_bone R_forearm
R_front_hand01_01 R_front_hand
R_front_hand02_01 R_front_hand
R_front_hand03_01 R_front_hand
R_front_hand01_02 R_front_hand01_01
R_front_hand02_02 R_front_hand02_01
R_front_hand03_02 R_front_hand03_01
null_rope01_connect L_mid_tent01
Rope1_Seg01 null_rope01_connect
Rope1_Seg02 Rope1_Seg01
Rope1_Seg03 Rope1_Seg02
Rope1_Seg04 Rope1_Seg03
Rope1_Seg05 Rope1_Seg04
Rope1_Seg06 Rope1_Seg05
Rope1_Seg07 Rope1_Seg06
Rope1_Seg09 Rope1_Seg07
L_mid_hand01 Rope1_Seg09
L_mid_hand02 Rope1_Seg09
L_mid_hand03 Rope1_Seg09
null_rope02_connect R_mid_tent01
Rope2_Seg01 null_rope02_connect
Rope2_Seg02 Rope2_Seg01
Rope2_Seg03 Rope2_Seg02
Rope2_Seg04 Rope2_Seg03
Rope2_Seg05 Rope2_Seg04
Rope2_Seg06 Rope2_Seg05
Rope2_Seg07 Rope2_Seg06
Rope2_Seg09 Rope2_Seg07
R_mid_hand01 Rope2_Seg09
R_mid_hand02 Rope2_Seg09
R_mid_hand03 Rope2_Seg09
spine02 spine01
spine03 spine02
pelvis spine03
null_rope03_connect pelvis
null_rope04_connect pelvis
Rope3_Seg01 null_rope03_connect
Rope3_Seg02 Rope3_Seg01
Rope3_Seg03 Rope3_Seg02
Rope3_Seg04 Rope3_Seg03
Rope3_Seg05 Rope3_Seg04
Rope3_Seg06 Rope3_Seg05
Rope3_Seg07 Rope3_Seg06
Rope3_Seg08 Rope3_Seg07
Rope3_Seg09 Rope3_Seg08
R_rear_hand01 Rope3_Seg09
R_rear_hand02 Rope3_Seg09
R_rear_hand03 Rope3_Seg09
Rope4_Seg01 null_rope04_connect
Rope4_Seg02 Rope4_Seg01
Rope4_Seg03 Rope4_Seg02
Rope4_Seg04 Rope4_Seg03
Rope4_Seg05 Rope4_Seg04
Rope4_Seg06 Rope4_Seg05
Rope4_Seg07 Rope4_Seg06
Rope4_Seg08 Rope4_Seg07
Rope4_Seg09 Rope4_Seg08
L_rear_hand01 Rope4_Seg09
L_rear_hand02 Rope4_Seg09
L_rear_hand03 Rope4_Seg09
[BasePosition]
#SegmentName Tx, Ty, Tz, Rx, Ry, Rz, BoneLength
MASTER 0.000000 0.000000 0.000000 -90.000000 0.000000 0.000000 10.000000 
root 0.000000 0.000000 0.000000 0.000000 0.000000 0.000000 10.000000 
chest 0.000000 0.000000 0.000000 0.000000 0.000000 0.000000 10.000000 
L_mid_tent01 0.000000 0.000000 0.000000 0.000000 0.000000 0.000000 10.000000 
R_mid_tent01 0.000000 0.000000 0.000000 0.000000 0.000000 0.000000 10.000000 
spine01 0.000000 0.000000 0.000000 0.000000 0.000000 0.000000 10.000000 
Bip01_Neck 0.000000 0.000000 0.000000 0.000000 0.000000 0.000000 10.000000 
L_humerus 0.000000 0.000000 0.000000 0.000000 0.000000 0.000000 10.000000 
R_humerus 0.000000 0.000000 0.000000 0.000000 0.000000 0.000000 10.000000 
weapon_bone 0.000000 0.000000 0.000000 0.000000 0.000000 0.000000 10.000000 
Bip01_Head 0.000000 0.000000 0.000000 0.000000 0.000000 0.000000 10.000000 
eye_left_bone 0.000000 0.000000 0.000000 0.000000 0.000000 0.000000 10.000000 
eye_right_bone 0.000000 0.000000 0.000000 0.000000 0.000000 0.000000 10.000000 
L_forearm 0.000000 0.000000 0.000000 0.000000 0.000000 0.000000 10.000000 
L_front_hand 0.000000 0.000000 0.000000 0.000000 0.000000 0.000000 10.000000 
L_weapon_bone 0.000000 0.000000 0.000000 0.000000 0.000000 0.000000 10.000000 
L_front_hand01_01 0.000000 0.000000 0.000000 0.000000 0.000000 0.000000 10.000000 
L_front_hand02_01 0.000000 0.000000 0.000000 0.000000 0.000000 0.000000 10.000000 
L_front_hand03_01 0.000000 0.000000 0.000000 0.000000 0.000000 0.000000 10.000000 
L_front_hand01_02 0.000000 0.000000 0.000000 0.000000 0.000000 0.000000 10.000000 
L_front_hand02_02 0.000000 0.000000 0.000000 0.000000 0.000000 0.000000 10.000000 
L_front_hand03_02 0.000000 0.000000 0.000000 0.000000 0.000000 0.000000 10.000000 
R_forearm 0.000000 0.000000 0.000000 0.000000 0.000000 0.000000 10.000000 
R_front_hand 0.000000 0.000000 0.000000 0.000000 0.000000 0.000000 10.000000 
R_weapon_bone 0.000000 0.000000 0.000000 0.000000 0.000000 0.000000 10.000000 
R_front_hand01_01 0.000000 0.000000 0.000000 0.000000 0.000000 0.000000 10.000000 
R_front_hand02_01 0.000000 0.000000 0.000000 0.000000 0.000000 0.000000 10.000000 
R_front_hand03_01 0.000000 0.000000 0.000000 0.000000 0.000000 0.000000 10.000000 
R_front_hand01_02 0.000000 0.000000 0.000000 0.000000 0.000000 0.000000 10.000000 
R_front_hand02_02 0.000000 0.000000 0.000000 0.000000 0.000000 0.000000 10.000000 
R_front_hand03_02 0.000000 0.000000 0.000000 0.000000 0.000000 0.000000 10.000000 
null_rope01_connect 0.000000 0.000000 0.000000 0.000000 0.000000 0.000000 10.000000 
Rope1_Seg01 0.000000 0.000000 0.000000 0.000000 0.000000 0.000000 10.000000 
Rope1_Seg02 0.000000 0.000000 0.000000 0.000000 0.000000 0.000000 10.000000 
Rope1_Seg03 0.000000 0.000000 0.000000 0.000000 0.000000 0.000000 10.000000 
Rope1_Seg04 0.000000 0.000000 0.000000 0.000000 0.000000 0.000000 10.000000 
Rope1_Seg05 0.000000 0.000000 0.000000 0.000000 0.000000 0.000000 10.000000 
Rope1_Seg06 0.000000 0.000000 0.000000 0.000000 0.000000 0.000000 10.000000 
Rope1_Seg07 0.000000 0.000000 0.000000 0.000000 0.000000 0.000000 10.000000 
Rope1_Seg09 0.000000 0.000000 0.000000 0.000000 0.000000 0.000000 10.000000 
L_mid_hand01 0.000000 0.000000 0.000000 0.000000 0.000000 0.000000 10.000000 
L_mid_hand02 0.000000 0.000000 0.000000 0.000000 0.000000 0.000000 10.000000 
L_mid_hand03 0.000000 0.000000 0.000000 0.000000 0.000000 0.000000 10.000000 
null_rope02_connect 0.000000 0.000000 0.000000 0.000000 0.000000 0.000000 10.000000 
Rope2_Seg01 0.000000 0.000000 0.000000 0.000000 0.000000 0.000000 10.000000 
Rope2_Seg02 0.000000 0.000000 0.000000 0.000000 0.000000 0.000000 10.000000 
Rope2_Seg03 0.000000 0.000000 0.000000 0.000000 0.000000 0.000000 10.000000 
Rope2_Seg04 0.000000 0.000000 0.000000 0.000000 0.000000 0.000000 10.000000 
Rope2_Seg05 0.000000 0.000000 0.000000 0.000000 0.000000 0.000000 10.000000 
Rope2_Seg06 0.000000 0.000000 0.000000 0.000000 0.000000 0.000000 10.000000 
Rope2_Seg07 0.000000 0.000000 0.000000 0.000000 0.000000 0.000000 10.000000 
Rope2_Seg09 0.000000 0.000000 0.000000 0.000000 0.000000 0.000000 10.000000 
R_mid_hand01 0.000000 0.000000 0.000000 0.000000 0.000000 0.000000 10.000000 
R_mid_hand02 0.000000 0.000000 0.000000 0.000000 0.000000 0.000000 10.000000 
R_mid_hand03 0.000000 0.000000 0.000000 0.000000 0.000000 0.000000 10.000000 
spine02 0.000000 0.000000 0.000000 0.000000 0.000000 0.000000 10.000000 
spine03 0.000000 0.000000 0.000000 0.000000 0.000000 0.000000 10.000000 
pelvis 0.000000 0.000000 0.000000 0.000000 0.000000 0.000000 10.000000 
null_rope03_connect 0.000000 0.000000 0.000000 0.000000 0.000000 0.000000 10.000000 
null_rope04_connect 0.000000 0.000000 0.000000 0.000000 0.000000 0.000000 10.000000 
Rope3_Seg01 0.000000 0.000000 0.000000 0.000000 0.000000 0.000000 10.000000 
Rope3_Seg02 0.000000 0.000000 0.000000 0.000000 0.000000 0.000000 10.000000 
Rope3_Seg03 0.000000 0.000000 0.000000 0.000000 0.000000 0.000000 10.000000 
Rope3_Seg04 0.000000 0.000000 0.000000 0.000000 0.000000 0.000000 10.000000 
Rope3_Seg05 0.000000 0.000000 0.000000 0.000000 0.000000 0.000000 10.000000 
Rope3_Seg06 0.000000 0.000000 0.000000 0.000000 0.000000 0.000000 10.000000 
Rope3_Seg07 0.000000 0.000000 0.000000 0.000000 0.000000 0.000000 10.000000 
Rope3_Seg08 0.000000 0.000000 0.000000 0.000000 0.000000 0.000000 10.000000 
Rope3_Seg09 0.000000 0.000000 0.000000 0.000000 0.000000 0.000000 10.000000 
R_rear_hand01 0.000000 0.000000 0.000000 0.000000 0.000000 0.000000 10.000000 
R_rear_hand02 0.000000 0.000000 0.000000 0.000000 0.000000 0.000000 10.000000 
R_rear_hand03 0.000000 0.000000 0.000000 0.000000 0.000000 0.000000 10.000000 
Rope4_Seg01 0.000000 0.000000 0.000000 0.000000 0.000000 0.000000 10.000000 
Rope4_Seg02 0.000000 0.000000 0.000000 0.000000 0.000000 0.000000 10.000000 
Rope4_Seg03 0.000000 0.000000 0.000000 0.000000 0.000000 0.000000 10.000000 
Rope4_Seg04 0.000000 0.000000 0.000000 0.000000 0.000000 0.000000 10.000000 
Rope4_Seg05 0.000000 0.000000 0.000000 0.000000 0.000000 0.000000 10.000000 
Rope4_Seg06 0.000000 0.000000 0.000000 0.000000 0.000000 0.000000 10.000000 
Rope4_Seg07 0.000000 0.000000 0.000000 0.000000 0.000000 0.000000 10.000000 
Rope4_Seg08 0.000000 0.000000 0.000000 0.000000 0.000000 0.000000 10.000000 
Rope4_Seg09 0.000000 0.000000 0.000000 0.000000 0.000000 0.000000 10.000000 
L_rear_hand01 0.000000 0.000000 0.000000 0.000000 0.000000 0.000000 10.000000 
L_rear_hand02 0.000000 0.000000 0.000000 0.000000 0.000000 0.000000 10.000000 
L_rear_hand03 0.000000 0.000000 0.000000 0.000000 0.000000 0.000000 10.000000 
#Beginning of Data. Separated by tabs
#Fr	Tx	Ty	Tz	Rx	Ry	Rz	SF
[MASTER]
26 0.000000 0.000000 0.000000 0.001660 0.001660 0.001660 0.000000
27 0.000000 0.000000 0.000000 0.001660 0.001660 0.001660 0.000000
[root]
26 -11.538613 -62.762104 1499.154663 -91.712112 -26.466221 -90.196541 1500.512207
27 -11.729528 -62.769039 1499.343872 -91.696732 -26.692402 -90.189056 1500.703003
[chest]
26 -84.512650 -34.090519 0.000000 -4.883928 1.981831 -178.071045 91.129311
27 -84.512650 -34.090519 0.000000 -4.883928 1.981831 -178.071045 91.129311
[L_mid_tent01]
26 27.299549 22.177483 -249.917984 4.884161 36.122105 83.078407 252.380875
27 27.299543 22.177492 -249.917984 4.877228 36.118561 83.067871 252.380875
[R_mid_tent01]
26 23.228794 24.509907 226.238495 158.600586 -47.655754 89.968376 228.744751
27 23.228794 24.509907 226.238495 158.528152 -47.673653 90.049728 228.744751
[spine01]
26 -0.361383 -0.195265 0.000000 0.840989 0.446373 15.483044 0.410763
27 -0.361383 -0.195265 0.000000 0.840989 0.446373 15.483044 0.410763
[Bip01_Neck]
26 165.484543 71.581718 0.000119 175.896118 1.177290 24.871183 180.302734
27 165.484543 71.581718 0.000119 175.896118 1.177290 24.871183 180.302734
[L_humerus]
26 -13.983130 -135.272980 -120.471481 176.524567 66.198036 -109.631966 181.680161
27 -13.983130 -135.272980 -120.471481 175.422775 69.901901 -108.288872 181.680161
[R_humerus]
26 -13.983309 -135.273102 125.287651 -156.818222 -64.763557 -130.082169 184.909012
27 -13.983309 -135.273102 125.287651 -152.553055 -66.385406 -133.269196 184.909012
[weapon_bone]
26 235.964890 -300.705902 0.000000 0.000000 -89.951546 -128.212341 382.234833
27 235.964890 -300.705902 0.000000 0.000000 -89.951546 -128.212341 382.234833
[Bip01_Head]
26 261.355835 108.959366 -2.864223 2.248029 5.843375 -62.458332 283.173492
27 261.355835 108.959381 -2.864221 2.248029 5.843377 -62.458344 283.173492
[eye_left_bone]
26 -24.626970 125.451866 -64.772606 0.000000 -90.000000 -99.840431 143.318359
27 -24.626970 125.451866 -64.772606 0.000000 -90.000000 -99.840431 143.318359
[eye_right_bone]
26 -24.626970 125.451866 64.327362 0.000000 -89.960434 80.159386 143.117676
27 -24.626970 125.451866 64.327362 0.000000 -89.960434 80.159386 143.117676
[L_forearm]
26 322.776093 0.000000 -0.000119 0.000090 0.002345 -85.620308 322.776093
27 322.776093 0.000000 -0.000119 -0.000000 -0.000000 -89.533096 322.776093
[L_front_hand]
26 241.149185 -0.042021 -3.300071 -179.266266 -2.145304 -10.334885 241.171753
27 241.149185 -0.042021 -3.300071 -179.122208 -2.091572 -14.223678 241.171753
[L_weapon_bone]
26 156.183838 0.000000 0.000000 0.002099 0.001050 36.876812 156.183838
27 156.183838 0.000000 0.000000 0.002028 0.001182 29.500954 156.183838
[L_front_hand01_01]
26 86.095154 20.947098 -0.655860 0.404772 -0.443050 -4.410137 88.609184
27 86.095154 20.947098 -0.655860 0.405069 -0.442779 -4.486853 88.609184
[L_front_hand02_01]
26 86.935165 -11.437475 24.513514 116.958511 3.447446 1.404628 91.046425
27 86.935165 -11.437475 24.513514 116.958794 3.505438 1.432950 91.046425
[L_front_hand03_01]
26 86.637497 -14.123976 -20.424902 -118.414742 -4.482580 -0.250867 90.126129
27 86.637497 -14.123976 -20.424902 -118.417435 -4.538093 -0.220466 90.126129
[L_front_hand01_02]
26 71.020905 -0.000179 0.000030 0.001534 0.001777 -8.378850 71.020905
27 71.020905 -0.000179 0.000030 0.001534 0.001777 -8.378851 71.020905
[L_front_hand02_02]
26 71.020927 -0.000119 0.000060 0.001534 0.001777 -8.378850 71.020927
27 71.020927 -0.000119 0.000060 0.001534 0.001777 -8.378851 71.020927
[L_front_hand03_02]
26 71.020905 -0.000060 0.000060 0.001534 0.001777 -8.378850 71.020905
27 71.020905 -0.000060 0.000060 0.001534 0.001777 -8.378851 71.020905
[R_forearm]
26 322.776428 -0.000060 0.000030 0.210371 -0.041715 -79.415794 322.776428
27 322.776428 -0.000060 0.000030 0.213032 -0.019001 -85.437607 322.776428
[R_front_hand]
26 238.847015 -0.006795 2.210259 -1.125460 1.307225 -29.502224 238.857239
27 238.847015 -0.006795 2.210259 -1.222061 1.216789 -33.884666 238.857239
[R_weapon_bone]
26 155.664093 0.002503 -0.000030 0.002876 0.002297 -130.830200 155.664078
27 155.664093 0.002503 -0.000030 0.002998 0.002135 -124.520172 155.664078
[R_front_hand01_01]
26 87.624611 14.231146 22.918642 -116.955574 3.347704 -1.245063 91.683487
27 87.624611 14.231146 22.918642 -116.957756 3.396597 -1.271257 91.683487
[R_front_hand02_01]
26 89.356956 14.367283 -19.491137 118.416618 -4.109082 0.690705 92.579636
27 89.356956 14.367283 -19.491137 118.418266 -4.157666 0.663914 92.579636
[R_front_hand03_01]
26 87.286232 -22.307278 -0.143439 -0.387639 -0.232014 4.068687 90.091743
27 87.286232 -22.307278 -0.143439 -0.387760 -0.231813 4.128072 90.091743
[R_front_hand01_02]
26 71.020905 0.000060 0.000119 0.001777 0.001534 8.377220 71.020905
27 71.020905 0.000060 0.000119 0.001777 0.001534 8.377220 71.020905
[R_front_hand02_02]
26 71.020844 -0.000030 -0.000119 0.001777 0.001534 8.377220 71.020836
27 71.020844 -0.000030 -0.000119 0.001777 0.001534 8.377220 71.020836
[R_front_hand03_02]
26 71.020905 0.000000 0.000030 0.001777 0.001534 8.377220 71.020905
27 71.020905 0.000000 0.000030 0.001777 0.001534 8.377220 71.020905
[null_rope01_connect]
26 328.732483 0.000000 -0.000238 -138.751160 -51.812885 173.829071 328.732483
27 328.732483 0.000000 -0.000238 -138.535156 -51.830036 173.848007 328.732483
[Rope1_Seg01]
26 0.000047 0.000000 0.000000 96.313683 50.805233 114.727180 0.000047
27 0.000042 0.000000 0.000000 86.460014 51.916595 102.528008 0.000042
[Rope1_Seg02]
26 139.999863 -0.000179 0.000000 -0.582470 -7.652964 7.977853 139.999863
27 139.999863 -0.000179 0.000000 -0.093114 -5.389814 8.748384 139.999863
[Rope1_Seg03]
26 139.999924 0.000060 -0.000060 -1.295345 -10.790822 11.474606 139.999924
27 139.999924 0.000060 -0.000060 0.630917 -6.164634 11.572412 139.999924
[Rope1_Seg04]
26 139.999924 -0.000060 -0.000119 -2.532904 -13.942258 14.933451 139.999924
27 139.999924 -0.000060 -0.000119 2.064430 -7.436698 14.145634 139.999924
[Rope1_Seg05]
26 139.999832 0.000119 -0.000060 -1.962409 -6.391033 5.418993 139.999832
27 139.999832 0.000119 -0.000060 -3.406628 -8.440733 5.936171 139.999832
[Rope1_Seg06]
26 139.999954 0.000119 -0.000060 -1.141887 -2.527872 1.822738 139.999954
27 139.999954 0.000119 -0.000060 -2.832652 -4.392001 2.259097 139.999954
[Rope1_Seg07]
26 139.999985 0.000060 0.000000 -0.826071 -1.965884 1.534465 139.999985
27 139.999985 0.000060 0.000000 -1.445709 -2.564606 1.666693 139.999985
[Rope1_Seg09]
26 121.602913 0.000119 -0.000089 -89.790619 -1.359656 0.847385 121.602913
27 121.602913 0.000119 -0.000089 -89.790619 -1.359656 0.847385 121.602913
[L_mid_hand01]
26 103.859421 1.038730 8.195221 124.132080 -63.774460 -31.835007 104.187431
27 103.859421 1.038730 8.195221 122.611992 -62.612782 -30.132088 104.187431
[L_mid_hand02]
26 105.572853 -4.139662 -10.864139 -164.599960 42.308495 -67.148735 106.211075
27 105.572853 -4.139662 -10.864139 -163.391174 41.926720 -65.346313 106.211075
[L_mid_hand03]
26 104.641464 17.579376 -3.913581 -7.514652 17.247957 69.911072 106.179977
27 104.641464 17.579376 -3.913581 -7.943419 17.058010 68.466927 106.179977
[null_rope02_connect]
26 328.732849 0.000179 -0.000119 -124.991531 40.505833 19.305660 328.732849
27 328.732849 0.000179 -0.000119 -124.768120 40.451553 19.338875 328.732849
[Rope2_Seg01]
26 0.000095 0.000153 0.000053 -63.983376 33.690746 19.924202 0.000188
27 0.000095 0.000153 0.000055 -63.835987 35.154236 21.867352 0.000188
[Rope2_Seg02]
26 139.999741 -0.000060 -0.000119 -1.809507 -8.531151 6.757021 139.999756
27 139.999741 -0.000060 -0.000119 -1.836974 -9.517529 7.321493 139.999756
[Rope2_Seg03]
26 140.000107 0.000030 0.000000 -2.405695 -13.493320 11.261841 140.000107
27 140.000107 0.000030 0.000000 -2.080143 -12.852605 10.773831 140.000107
[Rope2_Seg04]
26 139.999802 0.000000 -0.000060 -1.637610 -16.231625 20.566410 139.999802
27 139.999802 0.000000 -0.000060 -0.766543 -11.748072 15.951821 139.999802
[Rope2_Seg05]
26 139.999985 -0.000060 0.000119 -5.328558 -23.113125 1.789398 139.999985
27 139.999985 -0.000060 0.000119 -3.942722 -21.856981 2.265195 139.999985
[Rope2_Seg06]
26 139.999893 -0.000030 -0.000119 -8.689445 -10.515674 -5.510992 139.999893
27 139.999893 -0.000030 -0.000119 -8.852069 -14.616367 -4.864607 139.999893
[Rope2_Seg07]
26 139.999893 0.000060 -0.000060 -3.445328 -4.262914 -1.419892 139.999893
27 139.999893 0.000060 -0.000060 -4.300330 -5.709864 -1.642106 139.999893
[Rope2_Seg09]
26 121.338966 0.000089 -0.000060 49.859581 -1.071006 -1.188671 121.338966
27 121.338966 0.000089 -0.000060 51.314709 -1.042805 -1.217863 121.338966
[R_mid_hand01]
26 104.680779 11.144459 -10.335981 -18.797112 44.418114 66.796440 105.778534
27 104.680779 11.144459 -10.335981 -19.369331 44.211700 65.973900 105.778534
[R_mid_hand02]
26 104.070427 2.443552 8.231699 53.043564 -65.630211 34.958263 104.424065
27 104.070427 2.443552 8.231699 53.856892 -65.125542 34.062153 104.424065
[R_mid_hand03]
26 106.028137 -11.221827 -5.996406 -176.343735 15.396008 -73.763290 106.788818
27 106.028137 -11.221827 -5.996406 -176.173782 15.356446 -73.116722 106.788818
[spine02]
26 129.756927 0.001550 0.000119 -0.245322 -4.052060 -4.355547 129.756927
27 129.756927 0.001550 0.000119 -0.245322 -4.052060 -4.355547 129.756927
[spine03]
26 78.613808 0.087257 -4.898805 0.369659 4.260734 -4.885720 78.766342
27 78.613808 0.087245 -4.898804 0.369659 4.260734 -4.885720 78.766342
[pelvis]
26 169.435242 0.051022 0.000000 -0.010007 -0.191417 -1.897554 169.435257
27 169.435242 0.051022 0.000000 -0.010007 -0.191417 -1.897554 169.435257
[null_rope03_connect]
26 -1.257226 -2.466202 137.391083 -99.964951 -88.892174 -147.888885 137.418976
27 -1.257226 -2.466202 137.391083 -99.352135 -88.911415 -148.275040 137.418976
[null_rope04_connect]
26 -1.259640 -2.480268 -137.844437 -99.964951 -88.892174 -147.888885 137.872513
27 -1.259640 -2.480268 -137.844437 -99.352135 -88.911415 -148.275040 137.872513
[Rope3_Seg01]
26 0.000010 0.000012 -0.000047 178.540405 -36.517765 -13.625035 0.000049
27 0.000010 0.000011 -0.000042 -176.706360 -33.481228 -13.849771 0.000045
[Rope3_Seg02]
26 139.999924 -0.000119 0.000060 -41.188587 1.917267 -21.224009 139.999924
27 139.999924 -0.000119 0.000060 -48.541996 4.577048 -22.131903 139.999924
[Rope3_Seg03]
26 139.999924 -0.000119 0.000119 -62.837147 24.876507 -19.527317 139.999924
27 139.999924 -0.000119 0.000119 -44.211212 30.217020 -8.709902 139.999924
[Rope3_Seg04]
26 139.999924 0.000119 0.000000 -16.509285 31.945000 6.143231 139.999924
27 139.999924 0.000119 0.000000 -17.935356 31.537893 0.274841 139.999924
[Rope3_Seg05]
26 139.999924 -0.000238 0.000060 -4.486102 30.107494 6.739646 139.999924
27 139.999924 -0.000238 0.000060 -10.669845 37.171246 -4.438664 139.999924
[Rope3_Seg06]
26 139.999893 -0.000119 -0.000060 0.571743 9.604693 3.474785 139.999893
27 139.999893 -0.000119 -0.000060 0.238253 11.239573 1.242671 139.999893
[Rope3_Seg07]
26 139.999771 0.000060 -0.000119 0.803403 4.471828 1.770388 139.999771
27 139.999771 0.000060 -0.000119 0.758288 4.958788 0.782011 139.999771
[Rope3_Seg08]
26 139.999985 -0.000060 0.000000 0.758522 2.439010 0.928045 139.999985
27 139.999985 -0.000060 0.000000 0.752499 2.645413 0.380174 139.999985
[Rope3_Seg09]
26 90.185997 -0.000179 -0.000060 89.795319 -1.358474 -0.848592 90.185997
27 90.185997 -0.000179 -0.000060 89.795311 -1.358474 -0.848592 90.185997
[R_rear_hand01]
26 103.366196 -6.073594 -10.757982 -177.449051 24.542627 -73.282959 104.101845
27 103.366196 -6.073594 -10.757982 -176.807449 24.467529 -71.732864 104.101845
[R_rear_hand02]
26 100.509819 12.039542 -7.992327 -13.290457 36.740479 71.470978 101.543350
27 100.509819 12.039542 -7.992327 -14.310520 36.403851 69.758919 101.543350
[R_rear_hand03]
26 101.539970 5.215704 5.435467 72.025368 -71.276314 20.947136 101.819031
27 101.539970 5.215704 5.435467 73.230003 -69.919853 19.667236 101.819031
[Rope4_Seg01]
26 -0.000020 -0.000056 -0.000129 135.397537 -55.337749 179.314972 0.000142
27 -0.000021 -0.000061 -0.000131 34.671989 -31.618954 -75.968521 0.000147
[Rope4_Seg02]
26 139.999985 0.000060 0.000119 72.455620 -51.761242 24.132603 139.999985
27 139.999985 0.000060 0.000119 -89.622536 -66.732269 165.528046 139.999985
[Rope4_Seg03]
26 139.999924 0.000000 -0.000238 7.647991 10.610855 13.467899 139.999924
27 139.999924 0.000000 -0.000238 18.784483 -4.689248 13.409732 139.999924
[Rope4_Seg04]
26 139.999985 0.000000 0.000119 6.315998 18.880510 18.629942 139.999985
27 139.999985 0.000000 0.000119 8.880361 8.094105 13.933799 139.999985
[Rope4_Seg05]
26 139.999802 -0.000060 -0.000119 1.076838 9.197463 8.158088 139.999802
27 139.999802 -0.000060 -0.000119 7.308692 16.768465 19.903883 139.999802
[Rope4_Seg06]
26 139.999924 0.000000 0.000060 0.245969 5.478123 4.792909 139.999924
27 139.999924 0.000000 0.000060 1.427727 9.099795 9.453646 139.999924
[Rope4_Seg07]
26 139.999802 0.000000 0.000000 0.051615 3.701704 3.230041 139.999802
27 139.999802 0.000000 0.000000 0.288966 5.089520 5.234232 139.999802
[Rope4_Seg08]
26 139.999924 0.000000 0.000119 -1.582188 2.260119 1.974139 139.999924
27 139.999924 0.000000 0.000119 -1.550063 2.927075 2.995383 139.999924
[Rope4_Seg09]
26 90.185791 0.000060 0.000060 8.380290 2.230667 0.849586 90.185791
27 90.185791 0.000060 0.000060 -63.618465 2.227689 0.848584 90.185791
[L_rear_hand01]
26 101.696655 -8.392275 -7.654577 -31.672554 -23.596746 144.004593 102.329041
27 101.696655 -8.392275 -7.654577 -12.874855 -36.868481 107.832809 102.329041
[L_rear_hand02]
26 102.726799 -1.568258 5.773216 82.698502 38.779919 171.546478 102.900848
27 102.726799 -1.568258 5.773216 71.484627 71.816597 158.486191 102.900848
[L_rear_hand03]
26 104.552910 9.721220 -10.420293 -163.986389 -19.011276 -141.981339 105.519653
27 104.552910 9.721220 -10.420293 -177.714188 -24.565958 -106.089058 105.519653
